<?xml version="1.0" standalone="no"?>
<!DOCTYPE svg PUBLIC "-//W3C//DTD SVG 1.1//EN" "http://www.w3.org/Graphics/SVG/1.1/DTD/svg11.dtd" >
<svg xmlns="http://www.w3.org/2000/svg" xmlns:xlink="http://www.w3.org/1999/xlink" version="1.1">
<metadata>
Created by FontForge 20170924 at Tue Dec 17 15:54:26 2019
 By www-data
 (c) 2015   
</metadata>
<defs>
<font id="HappyZcool" horiz-adv-x="500" >
  <font-face 
    font-family="HappyZcool"
    font-weight="400"
    font-stretch="normal"
    units-per-em="1000"
    panose-1="2 1 6 0 3 1 1 1 1 1"
    ascent="859"
    descent="-141"
    x-height="332"
    cap-height="478"
    bbox="7.33333 -200 931 773"
    underline-thickness="46"
    underline-position="-292"
    unicode-range="U+0021-9752"
  />
<missing-glyph horiz-adv-x="1000" 
d="M270 91l-76 19l120 489l76 -18l-120 -490v0zM209 -78l-55 55l46 47l55 -55l-46 -47v0z" />
    <glyph glyph-name=".notdef" horiz-adv-x="1000" 
d="M270 91l-76 19l120 489l76 -18l-120 -490v0zM209 -78l-55 55l46 47l55 -55l-46 -47v0z" />
    <glyph glyph-name="exclam" unicode="!" 
d="M270 91l-76 19l120 489l76 -18l-120 -490v0zM209 -78l-55 55l46 47l55 -55l-46 -47v0z" />
    <glyph glyph-name="quotedbl" unicode="&#x22;" 
d="M135 549l-73 27l73 194l74 -25l-74 -196v0zM277 549l-73 27l76 197l71 -28l-74 -196v0z" />
    <glyph glyph-name="numbersign" unicode="#" horiz-adv-x="622" 
d="M582 414h-536v78h536v-78zM582 166h-536v78h536v-78zM356 -60l40 706h78l-40 -706h-78zM148 -60l40 706h78l-40 -706h-78z" />
    <glyph glyph-name="dollar" unicode="$" horiz-adv-x="1000" 
d="M643 -132h-328l-124 201l66 41l101 -164h227l80 275l-425 -42l-74 348l436 155l143 -130l-52 -58l-109 99l-328 -117l46 -212l470 45l-129 -441v0zM520 -200h-78v941h78v-941v0z" />
    <glyph glyph-name="percent" unicode="%" horiz-adv-x="1000" 
d="M216 -149l-64 44l522 764l64 -43l-522 -765v0zM130 413l18 208h234v-204l-252 -4v0zM220 543l-5 -51l89 2v49h-84v0zM642 -153l-210 27l52 192h242l-84 -219v0zM530 -60l62 -8l21 56h-70l-13 -48v0z" />
    <glyph glyph-name="ampersand" unicode="&#x26;" horiz-adv-x="1000" 
d="M375 -133l-235 283l149 126l-71 68l-38 225l349 164l146 -233l-270 -228l141 -136l227 216l53 -56l-224 -214l45 -44l96 95l55 -55l-150 -148l-103 99l-170 -162v0zM249 140l133 -159l107 102l-144 138l-96 -81v0zM290 383l59 -57l224 190l-73 117l-233 -110l23 -140v0z
" />
    <glyph glyph-name="quotesingle" unicode="'" 
d="M277 549l-73 27l76 197l71 -28z" />
    <glyph glyph-name="parenleft" unicode="(" 
d="M339 -111q-73 73 -111.5 166.5t-38.5 196.5t38.5 196.5t111.5 166.5l55 -55q-62 -62 -94.5 -141t-32.5 -167t32.5 -166.5t94.5 -141.5z" />
    <glyph glyph-name="parenright" unicode=")" 
d="M205 -111l-55 55q62 63 94.5 141.5t32.5 166.5t-32.5 167t-94.5 141l55 55q73 -73 111.5 -166.5t38.5 -196.5t-38.5 -196.5t-111.5 -166.5z" />
    <glyph glyph-name="asterisk" unicode="*" 
d="M165 310l-64 45l94 124l-128 53l29 72l120 -49v127h78v-127l121 49l28 -72l-127 -53l104 -124l-64 -45l-101 119z" />
    <glyph glyph-name="plus" unicode="+" horiz-adv-x="1000" 
d="M783 261h-566v78h566v-78v0zM539 17h-78v566h78v-566v0z" />
    <glyph glyph-name="comma" unicode="," 
d="M234 -107l-73 28l46 123l-38 8l18 76l125 -29l-78 -206v0z" />
    <glyph glyph-name="hyphen" unicode="-" 
d="M423 261h-346v78h346v-78v0z" />
    <glyph glyph-name="period" unicode="." 
d="M186 -104l-14 152l126 12l-27 -147l-85 -17v0z" />
    <glyph glyph-name="slash" unicode="/" horiz-adv-x="1000" 
d="M300 -105l-72 29l319 791l72 -29l-319 -791v0z" />
    <glyph glyph-name="zero" unicode="0" horiz-adv-x="646" 
d="M554 94q0 -2 0.5 -5t-1.5 -5q1 1 1 2q0 -3 -3 -15l-8 -48q-1 -9 -8 -15t-16 -6h-4l-390 63q-11 2 -17 10t-5 18l47 388q2 11 9.5 17.5t18.5 4.5l26 -3q-10 7 -10 19l-2 32q0 11 6.5 18.5t17.5 7.5l267 14q11 1 18.5 -6t8.5 -17l43 -462q1 -5 1 -12zM233 496q5 -1 12 -8
q5 -6 5 -19l-37 -309q-2 -7 6 -9l247 -39l1 -1l2 1q1 1 1 4l-36 382q0 8 -8 8z" />
    <glyph glyph-name="one" unicode="1" horiz-adv-x="345" 
d="M239 120q11 0 18 -7.5t7 -17.5v-32q0 -11 -7 -18t-18 -7h-157q-11 0 -18 7t-7 18v32q0 10 7 17.5t18 7.5h22q3 0 6 2.5t3 5.5l47 357l-15 -8q-5 -3 -12 -3q-14 0 -22 14l-10 20q-5 9 -2 19t12 15l99 52q4 3 11 3q15 0 23 -13l7 -14q5 -10 7 -12q0 -1 1 -1q2 -4 2 -5
q4 -7 -1 -12q0 -2 -0.5 -5t-1.5 -8l-53 -401q0 -4 1 -5t5 -1h28v0z" />
    <glyph glyph-name="two" unicode="2" horiz-adv-x="631" 
d="M521 130q11 0 18 -7t7 -18v-57q0 -11 -7 -18t-17 -8l-402 -26h-2q-10 0 -17 6.5t-7 17.5v88q0 9 4.5 18.5t11.5 14.5l299 237q4 2 6 7.5t0 9.5l-20 90q-2 7 -10 7l-135 -20q-9 -2 -11 -11l-6 -42q-2 -9 -9 -15t-16 -6h-4l-40 6q-10 1 -17 10q-6 8 -4 19l14 96q2 9 9 16.5
t17 9.5l257 37h3q9 0 16.5 -6t9.5 -14l46 -202q2 -9 -1.5 -19t-11.5 -16l-307 -243l252 16q5 1 8 4q0 8 7 13t18 5h41v0z" />
    <glyph glyph-name="three" unicode="3" horiz-adv-x="598" 
d="M506 307q28 -8 37 -34q8 -28 -10 -49l-158 -196q-19 -22 -47 -22q-10 0 -19 3l-251 85q-10 3 -16 14q-5 12 -1 21l11 32q3 12 14 17q9 5 23 2l228 -78l107 132l-171 44q-14 4 -23.5 12.5t-13.5 22.5q-8 27 11 49l121 136h-175q-10 0 -18 8t-8 18v34q0 13 9 22t22 9h262
q34 0 47 -29q6 -14 3.5 -28.5t-12.5 -25.5l-139 -156l167 -43v0z" />
    <glyph glyph-name="four" unicode="4" horiz-adv-x="504" 
d="M455 265q2 -11 -5 -19q-6 -7 -17 -9l-90 -10q-9 -2 -13 -11l-49 -188q-2 -8 -9 -13t-15 -5q-4 0 -6 1l-40 10q-11 3 -16 11.5t-2 19.5l42 159v3h-3l-144 -16q-11 -2 -18.5 4.5t-8.5 17.5l-1 5q-1 5 -1 8t-1 5v1q-2 4 -1 8v5q-2 7 3 12q1 3 3 3q1 2 2 4.5t3 6.5l84 233
q2 7 8.5 11.5t14.5 4.5q6 0 9 -1l30 -11q10 -4 14.5 -13t0.5 -19l-73 -202v-2h2l87 10q5 0 8.5 3.5t4.5 7.5l73 277q5 19 24 19q2 0 3.5 -0.5t3.5 -0.5l39 -11q11 -2 16 -11t2 -19l-65 -250q-1 -1 0 -2l2 -1l69 8q11 2 18.5 -4.5t8.5 -17.5z" />
    <glyph glyph-name="five" unicode="5" horiz-adv-x="577" 
d="M510 189q4 -9 1 -19q-3 -9 -13 -14l-342 -144q-6 -2 -10 -2q-17 0 -23 16l-16 38q-4 9 0 18.5t13 14.5l271 113q2 1 2.5 2t1.5 2q1 3 0 6l-43 89q-2 6 -10 6h-2l-223 -61q-2 0 -3 -0.5t-3 -0.5q-8 0 -14 6t-7 15l-10 193q-1 5 0 9t3 7q4 8 13 10q0 1 0.5 2.5t-0.5 3.5
l-3 14q-2 10 4 19q7 9 16 10l238 49q1 0 2 0.5t3 0.5q8 0 15 -6t9 -14l7 -32q2 -11 -4 -18q-6 -10 -16 -11l-187 -39q-9 -2 -9 -10l5 -92q0 -4 4 -4h2l193 53q2 0 3.5 0.5t3.5 0.5q19 0 26 -16z" />
    <glyph glyph-name="six" unicode="6" horiz-adv-x="573" 
d="M516 295q13 -6 14 -16q3 -11 -6 -20l-232 -255q-9 -9 -20 -9t-19 10l-202 238q-7 8 -7.5 20t6.5 21l238 329q9 12 23 12q9 0 17 -6l28 -20q9 -7 11 -18.5t-5 -21.5l-204 -281q-7 -11 0 -20l110 -130q6 -7 13 0l105 115q2 2 2 5q0 2 -4 3l-103 44q-12 3 -15 15q-5 11 0 22
l13 32q7 17 26 17q5 0 11 -2l200 -84v0z" />
    <glyph glyph-name="seven" unicode="7" horiz-adv-x="504" 
d="M431 567q10 -4 14 -13t1 -19l-193 -507q-6 -16 -23 -16q-3 0 -9 2l-30 11q-10 4 -14.5 13t-0.5 19l151 398q1 0 1 1h-2l-239 -33h-3q-10 0 -16.5 6t-8.5 15l-6 41q-1 9 5 19q7 9 17 9l279 39q11 2 15 12q6 16 23 16q6 0 9 -2l30 -11v0z" />
    <glyph glyph-name="eight" unicode="8" horiz-adv-x="540" 
d="M486 225q1 -1 4.5 -6.5t5.5 -17.5t-0.5 -18t-3.5 -8q-5 -7 -12.5 -16t-13.5 -15l-134 -135q-2 -2 -7 -6.5t-11 -9t-12 -8t-10 -4.5q-5 -1 -16 -1q-6 0 -10 1q-7 1 -20.5 9.5t-17.5 11.5l-129 100q-7 5 -15.5 13.5t-14.5 15.5q-1 1 -3.5 6.5t-3.5 17.5q-1 11 1.5 17t3.5 7
q5 7 13 16t14 15l97 89q4 2 2 5q0 2 -3 4l-86 54q-8 5 -17 12.5t-15 13.5q-1 1 -5 7.5t-5 19.5q0 14 4 20.5t5 7.5q6 7 14.5 14.5t16.5 12.5l207 143q7 5 16 5q15 0 23 -13l20 -28q6 -10 4 -21.5t-12 -18.5l-168 -115q-3 -3 -3 -4q0 -2 3 -3l64 -40q2 -2 8 -2q8 0 12 4
l112 103q10 7 20 7q12 0 20 -9l24 -26q8 -8 7.5 -20t-9.5 -20l-97 -89q-3 -2 -3 -5q1 -2 4 -5l100 -62q8 -5 17 -12.5t15 -13.5zM378 188q0 2 -3 5l-87 54q-4 2 -9 2q-8 0 -11 -4l-87 -79q-3 -3 -3 -6q0 -5 3 -6l85 -65q3 -3 8 -3q6 0 10 4l92 92q3 3 2 6z" />
    <glyph glyph-name="nine" unicode="9" horiz-adv-x="526" 
d="M457 490q4 -8 4.5 -18.5t-2.5 -18.5l-168 -436q-6 -16 -23 -16q-6 0 -9 1l-47 18q-10 4 -14.5 13.5t-0.5 19.5l81 208q0 4 -1 5l-3 2l-179 31q-8 2 -16.5 7.5t-13.5 12.5l-9 13q-5 8 -6 18.5t1 18.5l41 140q5 19 24 19q2 0 3.5 -0.5t3.5 -0.5l30 -9q0 6 1 9l12 49
q5 19 24 19q5 0 6 -1l218 -55q9 -2 17 -8t12 -14zM171 497q1 -4 -1 -10l-30 -106q-1 -3 1 -5q0 -1 4 -3l156 -27h1q7 0 11 7l35 93q2 2 0 5q0 2 -4 2l-172 44h-1z" />
    <glyph glyph-name="colon" unicode=":" 
d="M285 -32l-192 121l41 65l192 -120l-41 -66v0zM285 -186l-192 121l41 65l192 -120l-41 -66v0z" />
    <glyph glyph-name="semicolon" unicode=";" 
d="M290 -156l-73 27l49 132l-42 9l17 76l129 -30l-80 -214v0zM360 86l-123 19l12 77l123 -19l-12 -77v0z" />
    <glyph glyph-name="less" unicode="&#x3c;" 
d="M330 -121l-232 402l232 401l67 -39l-209 -362l209 -363l-67 -39v0z" />
    <glyph glyph-name="equal" unicode="=" horiz-adv-x="760" 
d="M662 414h-556v78h556v-78v0zM662 226h-556v78h556v-78v0z" />
    <glyph glyph-name="greater" unicode="&#x3e;" horiz-adv-x="609" 
d="M313 -121l-67 39l209 363l-209 362l67 39l232 -401l-232 -402v0z" />
    <glyph glyph-name="question" unicode="?" 
d="M209 119l-14 166l145 129l-55 70l-176 -26l-12 77l221 32l129 -162l-171 -153l11 -126l-78 -7v0zM300 -23l-88 19l17 76l88 -19l-17 -76v0z" />
    <glyph glyph-name="at" unicode="@" horiz-adv-x="997" 
d="M538 -129l-354 20l-72 586l404 203l350 -148l-51 -443l-285 -62l7 66l-158 -72l-124 216l101 259l299 -25l-37 -345l126 27l38 330l-264 111l-322 -162l57 -467l271 -15l375 171l32 -71l-393 -179v0zM341 244l70 -123l135 62l23 217l-162 13l-66 -169v0z" />
    <glyph glyph-name="A" unicode="A" horiz-adv-x="611" 
d="M96 -50q-2 -7 -8 -9.5t-12 -0.5l-32 12q-6 2 -9 7.5t-1 12.5l166 466q2 6 8 9t12 1l32 -12q7 -2 9.5 -8t0.5 -12zM167 113q-2 6 1 12t9 8l144 48q6 2 12 -1t8 -9l11 -33q2 -6 -1 -11.5t-9 -7.5l-144 -49q-6 -2 -12 1t-8 9zM480 -50q-6 -3 -12 -0.5t-8 8.5l-196 487
q-5 14 9 21l78 31q14 5 21 -9l195 -487q3 -6 0.5 -12t-8.5 -8z" />
    <glyph glyph-name="B" unicode="B" horiz-adv-x="614" 
d="M206 -53q0 -5 -16 -5h-125q-6 0 -10.5 4.5t-4.5 11.5v486q0 7 4.5 11.5t10.5 4.5h125q16 0 16 -16v-383q0 -6 4.5 -11t11.5 -5h222q16 0 14 16l-9 92q-2 16 -18 16h-109q-6 0 -11 4.5t-5 10.5v63q0 7 5 11.5t11 4.5h102q6 0 11.5 4.5t6.5 10.5l12 60q1 6 -3 11t-10 6
l-190 29q-7 1 -11 6t-2 12l9 62q1 6 6 10t12 3l286 -43q7 -2 10.5 -7t2.5 -11l-37 -196q-3 -15 4 -15q6 0 8 -15l23 -223q1 -6 -3 -10.5t-11 -4.5h-326q-16 0 -16 -5z" />
    <glyph glyph-name="C" unicode="C" horiz-adv-x="614" 
d="M245 10q-1 6 2.5 11.5t10.5 6.5l294 53q6 1 11 -2.5t7 -10.5l11 -61q3 -15 -13 -19l-294 -52q-6 -2 -11 2t-7 10zM209 -14q-2 -6 -7.5 -10t-11.5 -2l-122 31q-6 2 -9.5 7t-1.5 11l114 462q3 15 19 12l11 -3q15 -3 15 -2q0 2 16 2h271q7 0 11.5 -4.5t4.5 -10.5v-22
q0 -6 -4.5 -11t-11.5 -5h-166q-16 0 -19 -15z" />
    <glyph glyph-name="D" unicode="D" horiz-adv-x="614" 
d="M568 157q5 2 10 -1.5t7 -9.5l19 -60q2 -6 -1 -12t-10 -8l-349 -107q-6 -2 -12 1t-8 9l-18 60q-2 6 1 11.5t9 7.5l258 80q6 2 10 7.5t3 12.5l-17 248q-2 16 -17 18l-256 32q-6 1 -10.5 -3t-4.5 -10v-461q0 -16 -16 -16h-125q-16 0 -16 16v486q0 6 4.5 10.5t11.5 4.5h106
q16 0 18 16l2 15q1 6 6 10t11 3l334 -42q15 -2 17 -18l20 -288q2 -16 13 -12z" />
    <glyph glyph-name="E" unicode="E" horiz-adv-x="573" 
d="M527 -14q0 -7 -4.5 -11.5t-10.5 -4.5h-428q-16 0 -16 16v347q0 6 4.5 10.5t11.5 4.5h94q6 0 10.5 -4.5t4.5 -10.5v-222q0 -6 4.5 -11t11.5 -5h303q6 0 10.5 -4.5t4.5 -10.5v-94zM64 378q-7 -1 -12 3t-6 10l-6 47q-1 6 3 11t10 6l434 59q16 2 18 -14l6 -46q1 -7 -3 -12
t-10 -6zM201 274q-1 6 3 11t10 6l292 40q6 1 11 -3t6 -11l8 -59q2 -6 -2 -11t-11 -6l-292 -40q-6 -1 -11 3t-6 11z" />
    <glyph glyph-name="F" unicode="F" horiz-adv-x="575" 
d="M27 360q-8 0 -10 15l-6 46q-1 7 3 12t10 6l494 67q16 2 18 -14l6 -46q1 -7 -3 -12t-10 -6l-322 -43q-16 -4 -16 -18v-100q0 -16 16 -14l333 45q6 1 11 -3t6 -11l8 -58q1 -7 -3 -12t-10 -6l-334 -45q-6 -1 -11 3t-6 10l-8 54q-1 6 -1.5 6t-0.5 -7v-246q0 -7 -4.5 -11.5
t-10.5 -4.5h-126q-6 0 -10.5 4.5t-4.5 11.5v363q0 6 -2.5 10.5t-5.5 3.5z" />
    <glyph glyph-name="G" unicode="G" horiz-adv-x="573" 
d="M318 227q0 16 16 16h204q6 0 10.5 -4.5t4.5 -11.5v-245q0 -7 -4.5 -11.5t-10.5 -4.5h-63q-16 0 -16 8q0 3 -4.5 4.5t-10.5 -0.5l-185 -35q-7 -2 -15.5 0t-13.5 6l-194 124q-5 4 -9 11t-4 13v301q0 6 4 12t11 8l287 99q7 2 15.5 1.5t13.5 -3.5l185 -86q13 -7 8 -21
l-27 -57q-3 -5 -9 -7.5t-12 0.5l-150 70q-6 3 -14.5 3.5t-14.5 -1.5l-188 -65q-7 -2 -11 -8t-4 -12v-182q0 -7 4 -14t9 -10l119 -77q6 -4 14.5 -5.5t14.5 -0.5l166 32q6 1 10.5 6.5t4.5 11.5v41q0 7 -4.5 11.5t-10.5 4.5h-110q-16 0 -16 16v62z" />
    <glyph glyph-name="H" unicode="H" horiz-adv-x="575" 
d="M190 -33q-2 -7 -7 -11t-11 -2l-124 22q-6 1 -10 6.5t-2 11.5l88 499q2 6 7 10t12 2l123 -22q6 -1 10 -6t3 -12l-37 -205q-3 -15 13 -15l165 15q6 1 10.5 6t3.5 11l-15 175q-2 15 14 17l47 4q6 1 11 -3t5 -11l45 -497q0 -6 -4 -11t-11 -6l-46 -4q-7 -1 -12 3.5t-5 10.5
l-20 225q-1 7 -6 11t-11 4l-183 -17q-7 0 -12 -5t-7 -11z" />
    <glyph glyph-name="I" unicode="I" horiz-adv-x="272" 
d="M114 -45q-6 -1 -11 3t-6 11l-63 476q-1 6 3 11t11 6l124 16q7 2 12 -2t6 -11l62 -476q2 -15 -14 -18z" />
    <glyph glyph-name="J" unicode="J" horiz-adv-x="421" 
d="M153 313q0 7 -4.5 12t-10.5 6l-96 10q-16 2 -14 17l13 125q1 6 6 10t11 3l338 -35q16 -2 14 -18l-13 -124q-2 -16 -17 -14l-86 9q-15 2 -17 -14l-11 -342q0 -6 -4.5 -10t-11.5 -3l-190 27q-7 2 -10.5 7t-2.5 11l13 93q1 7 6 11t12 2l52 -7q6 -1 10.5 3t5.5 10z" />
    <glyph glyph-name="K" unicode="K" horiz-adv-x="627" 
d="M422 237q-4 -5 -2.5 -11.5t6.5 -10.5l163 -126q5 -4 6 -10.5t-3 -11.5l-76 -99q-5 -5 -11 -6.5t-11 3.5l-276 212q-11 8 -13 -6l-4 -203q0 -7 -4.5 -11.5t-10.5 -3.5l-126 2q-6 0 -10.5 4.5t-4.5 11.5l10 507q0 16 16 16l125 -3q15 0 15 -16l-5 -264q0 -6 2.5 -7t6.5 4
l72 93q4 5 9.5 7t8.5 -1q4 -2 9 -0.5t9 6.5l125 167q4 5 10.5 6.5t11.5 -2.5l75 -57q5 -4 6.5 -10.5t-3.5 -11.5z" />
    <glyph glyph-name="L" unicode="L" horiz-adv-x="575" 
d="M531 31q1 -7 -3 -12t-10 -6l-452 -59q-16 -2 -16 14v506q0 16 16 16h125q16 0 16 -16v-328q0 -6 4.5 -10.5t10.5 -2.5l275 36q16 2 18 -14z" />
    <glyph glyph-name="M" unicode="M" horiz-adv-x="614" 
d="M184 -12q-2 -6 -7 -9.5t-11 -1.5l-123 27q-14 3 -12 19l107 474q3 15 19 12l122 -27q6 -2 10 -7.5t2 -11.5l-14 -62q-2 -7 -2 -15.5t1 -15.5l30 -169q3 -12 6 0l26 146q1 6 1 15t-2 16l-14 62q-2 6 1.5 11.5t10.5 7.5l122 27q6 2 11.5 -1.5t7.5 -10.5l106 -474
q3 -16 -12 -19l-122 -28q-6 -1 -11.5 2.5t-6.5 9.5l-33 145q-2 6 -3.5 6t-2.5 -6l-24 -136q-2 -6 -7 -10t-11 -2l-62 11q-16 2 -14 8q0 5 -11 3q-5 -1 -9 3t-6 10l-24 136q-3 12 -6 0z" />
    <glyph glyph-name="N" unicode="N" horiz-adv-x="524" 
d="M55 -26q-7 0 -11.5 4.5t-4.5 10.5l-17 533q0 7 3 8t7 -4l289 -328q4 -5 7.5 -4t5.5 8l45 245q2 7 7 10.5t11 2.5l93 -17q6 -2 10 -7t2 -12l-92 -498q-2 -7 -5.5 -8t-7.5 4l-229 260q-4 5 -7 4t-3 -8l6 -185q0 -6 -4 -11t-11 -5z" />
    <glyph glyph-name="O" unicode="O" horiz-adv-x="588" 
d="M532 -40q0 -6 -4.5 -10.5t-11.5 -3.5l-457 24q-6 1 -10.5 5.5t-3.5 11.5l26 247q1 6 5.5 10.5t11.5 3.5l62 -7q16 -2 14 -17l-15 -149q-1 -6 3 -11t11 -5l203 -11q7 -1 12 3.5t5 11.5l17 211q0 16 -15 14l-266 -27q-7 -1 -11.5 3.5t-5.5 10.5l-13 125q-1 6 3.5 11t10.5 6
l453 46q6 1 10.5 -3t3.5 -11l-33 -423q0 -4 -0.5 -6.5t-0.5 -4.5v-5l-2 -16z" />
    <glyph glyph-name="P" unicode="P" horiz-adv-x="539" 
d="M164 -33q0 -7 -4.5 -11.5t-10.5 -4.5h-94q-16 0 -16 16v575q0 16 16 16h332q16 0 26 -12l93 -107q11 -11 9 -27l-12 -127q-1 -7 -6 -11t-11 -3h-6q-16 2 -12 -11q2 -5 -1.5 -9.5t-9.5 -6.5l-202 -61q-6 -2 -12 1t-8 9l-18 60q-3 15 11 20l137 41q6 2 11 8t6 12l3 36
q1 7 -1.5 15t-7.5 13l-20 23q-5 5 -12 8.5t-14 3.5h-150q-16 0 -16 -16v-450z" />
    <glyph glyph-name="Q" unicode="Q" horiz-adv-x="617" 
d="M513 -9q-4 5 -11 8.5t-14 2.5l-429 -44q-6 -1 -10.5 3.5t-3.5 10.5l33 424v10q0 3 1 5l2 16l2 34q0 15 16 15l457 -25q6 0 10.5 -5t3.5 -11l-26 -247q-2 -16 -17 -14l-23 2q-14 2 -9 -7q8 -8 12 -8q2 1 3.5 -1.5t1.5 -5.5q1 -3 3.5 -9t7.5 -11l74 -97q4 -5 3 -11.5
t-6 -10.5l-50 -38q-5 -5 -11 -3.5t-11 6.5zM376 148q16 2 7 14l-26 34q-5 5 -3.5 11.5t6.5 10.5l49 38q5 4 11.5 3t10.5 -6l13 -17q4 -5 7 -4t4 7l11 107q2 15 -14 17l-203 11q-7 0 -12 -4.5t-5 -10.5l-17 -212q0 -16 15 -14z" />
    <glyph glyph-name="R" unicode="R" horiz-adv-x="599" 
d="M144 -32q-2 -6 -7 -10t-11 -2l-62 10q-15 3 -13 19l63 363q2 7 -2 11t-11 3l-9 -1q-16 -2 -18 14l-6 62q-1 7 3 12t11 5l36 4q6 1 11.5 6t6.5 11l5 30q2 7 7 10.5t11 2.5l62 -11q15 -2 13 -18l-1 -4q-1 -6 2.5 -10.5t10.5 -3.5l303 31q16 2 14 -14l-36 -278
q-2 -15 -17 -17l-163 -20q-6 -1 -7 -4t4 -7l117 -95q5 -4 6 -10.5t-3 -11.5l-40 -48q-4 -5 -10.5 -6t-11.5 3l-211 170q-5 4 -9 2.5t-5 -8.5zM229 375q-6 -1 -11 -5.5t-7 -11.5l-16 -93q-1 -6 2.5 -10t10.5 -3l218 25q15 2 17 18l12 88q1 6 -3 10.5t-11 3.5z" />
    <glyph glyph-name="S" unicode="S" horiz-adv-x="534" 
d="M86 160q-7 0 -12 4.5t-6 10.5l-26 140q-1 7 1 14.5t7 12.5l105 122q4 5 11.5 8.5t14.5 4.5l290 10q7 0 11.5 -4.5t4.5 -10.5l3 -63q0 -7 -4.5 -11.5t-10.5 -4.5l-250 -9q-7 0 -14 -3.5t-12 -8.5l-49 -57q-4 -5 -6.5 -13t-0.5 -14l3 -20q2 -6 7 -10.5t12 -4.5l314 -4
q6 0 10.5 -4.5t3.5 -11.5l-14 -242q0 -6 -5 -10.5t-11 -4.5l-311 -4q-16 0 -16 16l-1 62q0 16 16 16l223 3q7 0 11.5 4.5t5.5 10.5l3 56q0 16 -15 16z" />
    <glyph glyph-name="T" unicode="T" horiz-adv-x="593" 
d="M564 378q1 -6 -3 -11t-10 -6l-475 -68q-7 -1 -12 3t-6 10l-18 124q-1 7 3 12t10 6l476 68q6 1 11 -3t6 -11zM355 -19q0 -6 -4.5 -10.5t-10.5 -4.5h-63q-7 0 -11.5 4.5t-4.5 10.5v284q0 16 16 16h63q6 0 10.5 -4.5t4.5 -11.5v-284z" />
    <glyph glyph-name="U" unicode="U" horiz-adv-x="593" 
d="M105 -23q-6 -1 -11 3t-6 11l-44 432q-1 6 3.5 11t10.5 6l125 12q6 1 11 -3t6 -11l44 -431q1 -7 -3.5 -12t-10.5 -5zM551 -28q0 -16 -15 -16h-257q-16 0 -16 16v62q0 16 16 16h160q16 0 16 16l-11 368q0 7 4.5 11.5t10.5 4.5l63 2q7 0 11.5 -4.5t4.5 -10.5z" />
    <glyph glyph-name="V" unicode="V" horiz-adv-x="599" 
d="M234 -37q-6 -2 -12 0.5t-8 8.5l-180 453q-3 6 -0.5 12t8.5 8l117 46q6 3 12 0.5t8 -8.5l141 -354q2 -6 6 -6t7 5l172 298q4 5 10 7t12 -2l40 -23q6 -3 7.5 -9.5t-1.5 -11.5l-203 -352q-3 -5 -5 -10t-1 -6q0 -4 -3 -5q-4 -2 -7 -7q-2 -4 -6 -2q-2 1 -7.5 -0.5t-11.5 -3.5z
" />
    <glyph glyph-name="W" unicode="W" horiz-adv-x="599" 
d="M455 494q1 7 6.5 10.5t11.5 2.5l86 -17q6 -2 10 -7t2 -11l-96 -495q-2 -6 -7 -10t-11 -2l-86 16q-7 2 -11 6.5t-2 9.5q1 6 1 14t-2 15l-40 168q-3 14 -8 0l-37 -132q-2 -7 -2.5 -15.5t1.5 -15.5l6 -31q1 -6 -2.5 -11t-10.5 -7l-123 -24q-6 -2 -11 2t-7 10l-96 495
q-2 6 1.5 11.5t10.5 6.5l123 24q6 2 11.5 -2t6.5 -10l51 -263q3 -13 8 0l58 206q2 6 7.5 9.5t11.5 1.5l45 -13q16 -5 11 -20l-10 -36q-2 -6 -2.5 -15t1.5 -15l32 -137q3 -14 7 0z" />
    <glyph glyph-name="X" unicode="X" horiz-adv-x="581" 
d="M53 -4q-5 4 -6 10.5t4 11.5l157 186q5 5 5 12t-5 12l-139 173q-4 5 -3.5 11.5t5.5 10.5l98 79q5 4 11.5 3t10.5 -6l120 -149q11 -12 20 -1l111 132q11 11 22 2l48 -41q5 -4 6 -10.5t-4 -11.5l-123 -145q-4 -5 -4 -12t4 -12l155 -192q4 -5 3 -11.5t-6 -10.5l-97 -79
q-5 -4 -11.5 -3.5t-10.5 5.5l-136 169q-4 5 -9.5 5t-10.5 -5l-145 -172q-5 -5 -11 -5.5t-11 3.5z" />
    <glyph glyph-name="Y" unicode="Y" horiz-adv-x="578" 
d="M190 285q-5 -5 -11 -5.5t-11 4.5l-135 127q-5 5 -5 11t5 11l85 91q5 5 11.5 5.5t11.5 -4.5l134 -127q5 -4 5.5 -10.5t-4.5 -11.5zM484 517q12 10 22 -1l44 -45q11 -11 0 -22l-205 -197q-5 -5 -8.5 -12.5t-3.5 -14.5l-12 -251q-2 -15 -17 -15l-62 3q-7 1 -11.5 5.5
t-3.5 11.5l14 288q0 6 3.5 13.5t8.5 12.5z" />
    <glyph glyph-name="Z" unicode="Z" horiz-adv-x="617" 
d="M61 13q-4 2 -4 5q2 5 0 5v1q1 1 3 17l11 113q2 16 18 14l113 -12q7 -1 15 1.5t13 7.5l219 178q12 10 12 26v9q0 6 -4.5 10.5t-10.5 4.5h-389q-6 0 -10.5 4.5t-4.5 11.5v63q0 6 4.5 10.5t10.5 4.5h483q6 0 10.5 -4.5t4.5 -10.5v-148q0 -16 -12 -26l-181 -147
q-5 -4 -4 -7.5t7 -3.5l200 -21q7 -1 11 -6t3 -11l-13 -125q-1 -6 -5.5 -10.5t-11.5 -3.5l-355 37q-7 1 -15 -1.5t-13 -6.5l-38 -31q-12 -10 -22 2l-31 38q-9 12 -14 12z" />
    <glyph glyph-name="bracketleft" unicode="[" 
d="M245 650h203q-16 -18 -35 -43.5t-41 -58.5q-3 -3 -3 -6q-11 -26 -20.5 -53t-17.5 -55q-8 -34 -12.5 -68t-4.5 -69q2 -45 9 -89t20 -89q28 -74 76 -134q9 -15 29 -35h-203v700z" />
    <glyph glyph-name="backslash" unicode="\" 
d="M392 -40l-248 601l72 30l248 -602l-72 -29v0z" />
    <glyph glyph-name="bracketright" unicode="]" 
d="M335 -50h-209q10 11 17 19t12 16q49 61 75 134q27 89 30 178q0 69 -18 137q-8 28 -17 55t-21 53q0 3 -3 6q-44 66 -75 102h209v-700z" />
    <glyph glyph-name="a" unicode="a" horiz-adv-x="557" 
d="M448 407q6 2 11 -2t7 -10l59 -359q1 -6 -3 -11t-10 -7l-124 -20q-6 -1 -11 2.5t-7 10.5l-48 291q-1 7 -6 13.5t-11 8.5l-33 16q-6 3 -14.5 3.5t-14.5 -1.5l-103 -36q-6 -2 -10.5 -8t-4.5 -12v-96q0 -6 4 -13t9 -11l63 -40q5 -4 13.5 -6t15.5 -1l75 7q6 1 11 -3t6 -11
l6 -62q1 -6 -3 -11t-11 -6l-107 -11q-7 -1 -15.5 1t-13.5 6l-134 86q-5 4 -9 11t-4 13v214q0 6 4.5 12.5t10.5 8.5l202 69q7 2 15.5 1.5t13.5 -3.5l84 -39q6 -3 14.5 -4t15.5 0z" />
    <glyph glyph-name="b" unicode="b" horiz-adv-x="552" 
d="M267 302q0 16 15 16l220 13q16 0 13 -15l-45 -311q-1 -7 -6 -12t-11 -5l-317 -28q-15 -2 -17 14l-2 28q-2 15 -17 15l-5 -1q-7 -1 -11.5 3.5t-5.5 10.5l-39 458q-1 7 3 12t11 5l125 11q6 1 11 -3.5t6 -10.5l36 -424q1 -6 5.5 -10.5t11.5 -3.5l122 11q16 2 18 17l18 124
q1 7 -3 11t-10 4l-106 -6q-6 -1 -11 3.5t-5 10.5z" />
    <glyph glyph-name="c" unicode="c" horiz-adv-x="524" 
d="M218 -39q-6 -1 -15 0.5t-15 3.5l-125 42q-6 2 -10.5 8.5t-4.5 12.5l-7 346q0 16 12 25l123 88q5 4 13.5 6.5t15.5 3.5l155 8q16 0 28 -10l76 -69q5 -5 5 -11t-4 -11l-43 -47q-4 -5 -10.5 -5t-11.5 4l-47 43q-5 5 -12.5 7.5t-14.5 2.5l-89 -5q-7 0 -15 -3t-13 -7l-61 -43
q-5 -4 -8.5 -11t-3.5 -13l4 -231q2 -16 16 -21l45 -15q6 -2 15 -3.5t15 -0.5l107 5q7 1 14 4.5t12 8.5l34 45q4 5 10.5 6t11.5 -3l50 -38q5 -4 6 -10.5t-4 -11.5l-60 -79q-5 -5 -12 -9t-14 -4z" />
    <glyph glyph-name="d" unicode="d" horiz-adv-x="519" 
d="M280 0q2 -6 -2 -11t-11 -6l-199 -27q-6 -2 -11 2t-5 11l-25 340q0 16 15 16l263 15q6 1 10.5 5.5t4.5 11.5l-10 157q0 15 15 17l125 7q15 0 17 -15l29 -496q0 -15 -15 -17l-125 -7q-15 0 -17 15l-12 214q-2 15 -17 15l-168 -10q-6 0 -10.5 -5t-3.5 -11l10 -145
q2 -16 17 -14l99 14q16 2 18 -14z" />
    <glyph glyph-name="e" unicode="e" horiz-adv-x="516" 
d="M338 275q15 2 17 18l7 102q1 7 -3.5 11.5t-10.5 4.5l-125 2q-7 1 -11.5 5.5t-3.5 10.5l1 63q0 7 4.5 11.5t11.5 3.5l224 -4q6 0 10.5 -4.5t3.5 -11.5l-20 -275q0 -7 -5 -12t-11 -6l-190 -30q-16 -2 -18 13l-10 62q-1 6 3 11t10 7zM136 -54q-7 -2 -13.5 1.5t-9.5 9.5
l-67 128q-3 5 -5 14t-2 15v378q0 6 4.5 10.5t11.5 4.5h94q6 0 10.5 -4.5t4.5 -10.5v-347q0 -16 7 -30l10 -19q3 -5 10 -8.5t13 -2.5l234 43q7 1 12 -3t6 -10l17 -92q2 -7 -2 -12t-10 -7z" />
    <glyph glyph-name="f" unicode="f" horiz-adv-x="545" 
d="M163 138q-2 15 -18 13l-73 -13q-7 -2 -12 2t-6 11l-11 61q-2 7 2 12t11 6l75 14q6 1 10 6t3 12l-33 206q-1 6 3 11t10 5l279 14q15 0 17 -15l6 -125q0 -16 -15 -16l-105 -6q-15 0 -13 -16l5 -31q1 -6 6 -10t12 -3l183 33q6 1 11 -3t7 -10l11 -62q1 -6 -3 -11t-10 -7
l-185 -32q-6 -2 -10 -7t-3 -12l27 -170q1 -6 -3 -11t-10 -7l-124 -19q-6 -2 -11 2t-7 11z" />
    <glyph glyph-name="g" unicode="g" horiz-adv-x="550" 
d="M401 358q2 6 -2 10.5t-11 4.5l-248 1q-6 0 -10.5 -4.5t-3.5 -11.5l3 -82q1 -6 5.5 -10t10.5 -2l190 39q6 2 11 -1.5t7 -10.5l13 -61q2 -6 -2 -11.5t-10 -7.5l-297 -61q-15 -3 -17 12l-13 290q0 7 4.5 11.5t10.5 4.5l366 -1q6 0 11.5 4.5t7.5 10.5l4 24q2 7 7.5 10.5
t11.5 1.5l61 -12q15 -3 12 -19l-106 -520q-3 -15 -19 -12l-168 43q-7 2 -10.5 7.5t-1.5 11.5l16 61q4 14 19 11l73 -19q6 -2 11.5 2t6.5 10z" />
    <glyph glyph-name="h" unicode="h" horiz-adv-x="550" 
d="M175 -28q-1 -7 -6 -11t-11 -3l-125 14q-6 1 -10 6t-3 11l56 506q2 16 18 14l124 -14q7 -1 11 -6t3 -11l-17 -149q-1 -6 3.5 -10.5t10.5 -4.5h283q6 0 10.5 -4.5t3.5 -11.5l-35 -322q-1 -7 -6 -11t-11 -3l-63 6q-6 1 -10 6t-3 12l23 218q2 16 -14 16h-188q-16 0 -18 -16z
" />
    <glyph glyph-name="i" unicode="i" horiz-adv-x="272" 
d="M234 -14q1 -7 -3.5 -11.5t-10.5 -5.5l-125 -11q-15 -2 -17 14l-27 302q-1 6 3 11t11 6l125 11q6 1 11 -3.5t6 -10.5zM41 477q0 15 14 17l128 14q6 1 11 -3.5t6 -10.5l13 -125q1 -6 -3 -11t-11 -6l-127 -13q-15 -2 -17 14z" />
    <glyph glyph-name="j" unicode="j" horiz-adv-x="339" 
d="M303 404q2 -15 -14 -17l-127 -14q-7 -1 -12 3.5t-5 10.5l-10 94q-1 6 3 11t11 6l127 13q15 2 17 -14zM130 111q7 -2 11.5 2t4.5 10l9 195q0 6 4.5 10.5t11.5 4.5l94 -4q6 -1 10.5 -5.5t4.5 -11.5l-15 -343q-2 -15 -16 -13l-213 48q-7 1 -10.5 6.5t-1.5 11.5l20 92
q2 6 7 10t12 2z" />
    <glyph glyph-name="k" unicode="k" horiz-adv-x="547" 
d="M516 360q8 -13 -4 -22l-182 -129q-5 -4 -5 -9t5 -8l131 -78q6 -3 7.5 -9.5t-1.5 -12.5l-48 -80q-4 -6 -10.5 -7.5t-11.5 1.5l-173 103q-5 4 -10 1.5t-6 -8.5l-25 -137q-1 -6 -6.5 -10t-11.5 -3l-123 23q-7 1 -10.5 6.5t-2.5 11.5l93 512q2 6 7 10t11 2l123 -22
q7 -2 11 -7t2 -11l-29 -160q-2 -14 10 -6l183 129q5 4 11.5 2.5t10.5 -6.5z" />
    <glyph glyph-name="l" unicode="l" horiz-adv-x="306" 
d="M269 -31q0 -7 -4.5 -11.5t-10.5 -4.5h-175q-16 0 -16 16l-14 506q0 16 16 16l94 3q6 0 10.5 -4.5t5.5 -10.5l10 -385q0 -16 16 -16h53q6 0 10.5 -4.5t4.5 -10.5v-94z" />
    <glyph glyph-name="m" unicode="m" horiz-adv-x="617" 
d="M40 -12q-6 1 -10.5 5.5t-3.5 11.5l35 306q1 7 -3 13t-10 8l-19 7q-6 2 -8.5 8t-0.5 12l21 59q2 6 8 9t11 1q6 -2 10.5 1t5.5 9l6 60q1 6 6 10t12 3l93 -10q16 -2 14 -18l-10 -88q-1 -7 3 -13t10 -8l59 -22q15 -5 29 2l208 109q14 7 16 -8l60 -451q1 -7 -3 -11.5t-10 -6.5
l-62 -8q-16 -2 -18 14l-42 317q-2 16 -16 9l-126 -67q-13 -6 -29 -1l-77 28q-6 2 -11 -1t-6 -9l-31 -277q-2 -16 -18 -14z" />
    <glyph glyph-name="n" unicode="n" horiz-adv-x="516" 
d="M414 459q7 -1 12 -6t6 -11l68 -437q2 -16 -14 -18l-61 -10q-7 -1 -12 3t-6 10l-57 367q-1 6 -6 11t-12 6l-158 18q-6 1 -11 -3t-5 -11l-12 -382q0 -7 -5 -11t-11 -4l-63 2q-6 0 -10.5 4.5t-4.5 11.5l15 485q1 6 5.5 10t10.5 3z" />
    <glyph glyph-name="o" unicode="o" 
d="M422 32q-2 -6 -7 -11t-11 -6l-331 -29q-6 -1 -11 3.5t-5 10.5l-24 334q-2 15 14 17l408 23q6 0 10 -4t3 -11zM359 259q1 7 -3 11t-10 4l-198 -12q-7 0 -11.5 -5t-3.5 -11l11 -144q0 -6 5 -10.5t11 -3.5l161 14q7 1 12 6t6 11z" />
    <glyph glyph-name="p" unicode="p" horiz-adv-x="491" 
d="M184 -14q1 -7 -3.5 -11.5t-10.5 -5.5l-94 -5q-7 -1 -11.5 3.5t-5.5 11.5l-26 472q-1 7 3.5 11.5t11.5 5.5l93 5q7 1 11.5 -3.5t5.5 -11.5l11 -200q1 -7 5.5 -11.5t11.5 -3.5l155 9q15 2 15 17l-10 132q0 7 -5 11t-11 3l-84 -12q-6 -1 -11 3t-6 10l-9 62q-1 7 3 12t10 6
l184 26q6 1 11 -3t5 -10l23 -328q0 -15 -15 -17l-250 -15q-7 0 -11 -5t-4 -11z" />
    <glyph glyph-name="q" unicode="q" horiz-adv-x="491" 
d="M160 415q-6 1 -11 -3t-5 -11l-10 -132q0 -15 15 -17l153 -9q16 0 16 15l11 232q1 7 5.5 11.5t11.5 3.5l93 -4q7 -1 11.5 -5.5t3.5 -11.5l-23 -505q-1 -6 -5.5 -10.5t-11.5 -4.5l-94 5q-6 0 -10.5 5t-3.5 11l6 148q1 6 -3.5 11t-10.5 5l-249 15q-15 2 -15 17l23 328
q0 6 5 10t11 3l184 -26q6 -1 10 -6t3 -12l-9 -62q-1 -6 -6 -10t-11 -3z" />
    <glyph glyph-name="r" unicode="r" horiz-adv-x="491" 
d="M162 -21q-1 -6 -5.5 -10.5t-11.5 -4.5l-94 5q-6 0 -10.5 5t-4.5 11l24 505q0 7 5 11.5t11 3.5l94 -4q7 -1 11.5 -5.5t3.5 -11.5l-5 -101q0 -15 15 -12l226 54q6 2 11.5 -1.5t7.5 -9.5l22 -91q3 -16 -12 -19l-261 -64q-16 -4 -16 -19z" />
    <glyph glyph-name="s" unicode="s" horiz-adv-x="424" 
d="M274 79q15 -2 17 14l5 69q0 15 -15 15l-225 -17q-15 0 -17 15l-20 216q-1 6 3 13t9 11l145 91q5 3 13.5 4.5t14.5 -0.5l175 -44q14 -4 11 -19l-15 -61q-2 -6 -7.5 -9.5t-11.5 -1.5l-136 34q-6 2 -14.5 0.5t-13.5 -4.5l-62 -39q-6 -4 -9.5 -11t-2.5 -13l6 -67
q1 -6 5.5 -10.5t11.5 -3.5l241 17q7 1 11.5 -3.5t3.5 -10.5l-19 -277q-2 -16 -17 -14l-305 40q-6 1 -10.5 6t-2.5 11l8 63q1 6 6 10t11 3z" />
    <glyph glyph-name="t" unicode="t" horiz-adv-x="447" 
d="M188 230q-1 6 -5.5 10t-11.5 3l-128 -18q-6 -1 -11 3t-7 10l-17 124q-2 7 2 12t11 6l138 20q15 2 15 18l-7 82q0 7 4 12t11 5l62 5q7 1 11.5 -3.5t5.5 -11.5l6 -76q0 -7 5 -11t11 -3l100 15q6 1 11 -3t6 -11l18 -124q1 -6 -3 -11t-10 -6l-110 -16q-6 -1 -10.5 -6
t-3.5 -12l14 -181q0 -6 5 -10.5t12 -4.5h62q16 0 16 -16v-63q0 -6 -4.5 -10.5t-11.5 -4.5h-150q-6 0 -11 4.5t-5 10.5z" />
    <glyph glyph-name="u" unicode="u" horiz-adv-x="596" 
d="M419 34q-5 5 -8.5 3t-4.5 -8l-4 -40q0 -6 -5 -10.5t-12 -3.5l-276 25q-7 0 -12 5t-6 11l-70 451q-1 6 3 11t10 7l93 14q16 2 18 -13l55 -353q1 -7 6 -12t12 -5l145 -13q6 -1 11 3t5 11l11 361q1 6 5.5 10.5t10.5 4.5l63 -2q7 0 11 -5t4 -11l-11 -347q0 -7 3.5 -14.5
t8.5 -11.5l77 -68q5 -5 6 -11.5t-4 -11.5l-41 -47q-5 -5 -11 -5.5t-11 4.5z" />
    <glyph glyph-name="v" unicode="v" 
d="M190 -33q-6 -2 -12.5 0.5t-8.5 8.5l-133 335q-3 6 -0.5 12.5t8.5 8.5l117 46q6 2 12 -0.5t8 -8.5l134 -335q2 -6 -0.5 -12t-8.5 -8zM399 324q3 6 9.5 7.5t11.5 -1.5l41 -24q13 -7 6 -21l-94 -162q-8 -13 -22 -6l-40 24q-13 7 -6 21z" />
    <glyph glyph-name="w" unicode="w" horiz-adv-x="614" 
d="M337 156q-6 3 -13 3t-12 -5l-215 -191q-5 -5 -8.5 -3t-5.5 8l-62 472q-1 7 3 12t10 6l62 8q7 1 12 -3t6 -10l39 -297q1 -7 5 -8.5t9 3.5l136 121q5 5 12.5 5.5t12.5 -3.5l83 -55q13 -8 15 7l26 228q1 6 6 10t12 3l93 -10q6 -1 10.5 -6t3.5 -12l-34 -291q-1 -7 3 -14
t9 -10l30 -21q6 -3 7.5 -9.5t-2.5 -11.5l-35 -53q-9 -12 -17 -7q-8 6 -10 -10l-8 -65q0 -7 -5 -11t-12 -3l-93 11q-16 2 -14 17l15 129q1 6 -2.5 13t-9.5 11z" />
    <glyph glyph-name="x" unicode="x" horiz-adv-x="462" 
d="M39 -14q-5 5 -6 11t4 11l119 142q5 5 5 12t-4 12l-105 130q-9 11 3 22l73 59q11 9 22 -3l89 -111q4 -5 9.5 -5t10.5 5l82 97q5 5 11 6t11 -4l36 -30q5 -5 6 -11t-4 -11l-92 -109q-5 -5 -5 -12t5 -12l116 -145q4 -5 3.5 -11.5t-5.5 -10.5l-73 -59q-5 -4 -11.5 -3.5
t-10.5 5.5l-102 126q-9 12 -20 1l-109 -130q-5 -5 -11 -6t-11 4z" />
    <glyph glyph-name="y" unicode="y" horiz-adv-x="555" 
d="M161 469q11 11 22 0l116 -118q10 -11 -1 -22l-89 -88q-5 -5 -11 -4.5t-11 5.5l-116 117q-5 5 -4.5 11t5.5 11zM459 454q11 11 23 1l45 -44q11 -11 0 -22l-181 -190q-5 -5 -11 -11.5t-11 -11.5l-220 -233q-5 -5 -11 -5.5t-11 4.5l-46 43q-5 5 -5 11t4 11l221 234
q5 5 11 11.5t11 11.5z" />
    <glyph glyph-name="z" unicode="z" horiz-adv-x="583" 
d="M354 61q-7 -14 8 -14h152q7 0 11.5 -4.5t4.5 -10.5v-63q0 -16 -16 -16h-310q-6 0 -8.5 4.5t0.5 9.5l132 244q3 5 0.5 9t-8.5 3l-270 -24q-6 -1 -11 3.5t-6 10.5l-5 63q-1 6 3 11t11 6l444 39q6 1 8.5 -2.5t-0.5 -9.5z" />
    <glyph glyph-name="braceleft" unicode="{" 
d="M417 -70l-161 64v218l-94 73l94 92v187l140 101l46 -63l-108 -78v-180l-54 -52l54 -42v-203l112 -45l-29 -72v0z" />
    <glyph glyph-name="bar" unicode="|" 
d="M292 -134l-77 -1v853h77v-852z" />
    <glyph glyph-name="braceright" unicode="}" 
d="M228 -65l-46 63l108 78v179l53 53l-53 41v204l-112 45l28 72l161 -64l1 -218l94 -73l-94 -92v-187l-140 -101v0z" />
    <glyph glyph-name="asciitilde" unicode="~" horiz-adv-x="1000" 
d="M667 220q-31 0 -63.5 11t-73.5 27q-25 9 -53 20t-63 22q-45 14 -82 14t-67 -8t-52.5 -22t-37.5 -27.5t-23 -24t-9 -11.5l-66 42q16 24 47.5 53t77.5 49.5t105.5 25.5t130.5 -17q36 -12 66 -23t54 -21q40 -16 66.5 -24.5t48 -7t43 14t52.5 39.5l51 -58q-46 -41 -82 -57.5
t-70 -16.5z" />
    <glyph glyph-name="uni535A" unicode="&#x535a;" horiz-adv-x="1000" 
d="M341 566q0 -8 -6.5 -14t-14.5 -6h-28q-8 0 -14 -5t-6 -13l-22 -544q0 -8 -6.5 -13t-14.5 -5l-64 2q-8 1 -14 7t-6 12l22 541q0 8 -6 13t-14 5h-13q-7 0 -13.5 6t-6.5 14v32q0 8 6.5 14t13.5 6h16q8 0 14 5t8 13l2 81q1 8 6.5 13t14.5 5l64 -2q8 0 13.5 -6t5.5 -14l-2 -77
q-1 -8 5 -13t14 -5h25q8 0 14.5 -6t6.5 -14v-32zM412 326q-8 0 -14 5.5t-6 13.5v237q0 8 6 13t14 5h144q8 0 13.5 5.5t5.5 12.5q0 8 -5.5 12.5t-13.5 4.5h-108q-9 0 -14.5 5.5t-5.5 13.5v33q0 8 5.5 13.5t14.5 5.5h108q9 0 14.5 5.5t5.5 13.5v19q0 8 6.5 13.5t14.5 5.5h36
q8 0 13.5 -5.5t5.5 -13.5v-19q0 -8 6 -13.5t14 -5.5h79q8 0 12.5 4.5t2.5 11.5t2 13.5t12 8.5l34 10q8 2 15 -1.5t11 -11.5l28 -88q3 -8 -1.5 -13t-13.5 -5h-181q-8 0 -14 -4.5t-6 -12.5q0 -7 6 -12.5t14 -5.5h137q9 0 14.5 -5t5.5 -13v-237q0 -8 -5.5 -13.5t-14.5 -5.5h-35
q-9 0 -15 2.5t-6 7.5q0 4 -5.5 7t-14.5 2l-62 -1q-10 0 -15.5 -5t-5.5 -11q0 -7 -6.5 -11.5t-13.5 -4.5h-36q-8 0 -14 4.5t-6 10.5q0 7 -5.5 11t-14.5 4h-28q-9 -2 -15 3.5t-6 13.5l-1 42q0 8 5.5 13.5t13.5 5.5l31 1q9 0 14.5 3t5.5 7q0 5 -5.5 8.5t-14.5 3.5h-29
q-8 0 -14.5 5t-6.5 13v32q0 8 6.5 14t14.5 6h29q10 0 15.5 2.5t5.5 5.5q0 5 -5.5 7t-15.5 2h-66q-8 0 -14 -5t-6 -13v-167q0 -8 -6 -13.5t-14 -5.5h-36zM699 513q10 0 15.5 -6t5.5 -14v-32q0 -8 -5.5 -13t-15.5 -5h-28q-8 0 -14 -3t-6 -8q0 -4 6 -7t14 -2l62 1q9 0 14.5 6
t5.5 13v69q0 8 -5.5 13t-14.5 5h-61q-9 0 -15 -2t-6 -7q0 -3 6 -5.5t14 -2.5h28zM866 278q9 0 15 -5t6 -13v-33q0 -7 -6 -13t-15 -6h-56q-8 0 -14 -5t-6 -13v-215q0 -8 -5.5 -12.5t-14.5 -3.5l-193 19q-8 1 -13 7t-4 14l7 59q1 8 7.5 13t14.5 4l76 -9q9 -2 15 3.5t6 13.5
v107q0 8 -6 13t-15 5h-335q-8 0 -13.5 6t-5.5 13v33q0 8 5.5 13t13.5 5h335q9 0 15 5.5t6 13.5q0 7 5.5 12.5t14.5 5.5h64q9 0 14.5 -5.5t5.5 -12.5q0 -8 6 -13.5t14 -5.5h56zM596 113q-1 -7 -7.5 -11.5t-14.5 -3.5l-166 18q-8 1 -13 7.5t-4 13.5l5 33q1 8 7.5 13t15.5 3
l164 -19q8 -1 13.5 -7t3.5 -14z" />
    <glyph glyph-name="uni5BA2" unicode="&#x5ba2;" horiz-adv-x="1000" 
d="M889 673q8 0 12.5 -5.5t3.5 -12.5l-19 -121q-1 -7 -7 -12t-13 -3l-28 4q-7 1 -11 6.5t-3 13.5l8 50q1 7 -3.5 12.5t-12.5 5.5h-620q-7 0 -11.5 -5.5t-3.5 -12.5l8 -46q2 -8 -2 -13.5t-12 -6.5l-27 -5q-7 -1 -13 3.5t-8 11.5l-18 118q-1 7 3 12.5t11 5.5h303q8 0 10.5 4.5
t0.5 11.5l-9 17q-4 6 -1 13t9 10l57 30q7 2 14 0t10 -8l31 -62q3 -6 5 -10.5t1 -4.5q0 -1 5 -1h12h318zM883 259q7 -4 9 -10t0 -13l-17 -37q-2 -6 -9 -9t-14 1l-326 148q-6 2 -16 3t-17 -2l-358 -150q-6 -3 -13 0t-11 9l-15 37q-2 7 0.5 13t9.5 10l295 123q6 3 6 7t-6 7
l-44 20q-5 3 -14 1t-13 -7l-50 -54q-5 -4 -12 -4.5t-13 3.5l-38 36q-6 5 -6 12t5 13l139 150q5 5 12.5 5t12.5 -4l35 -33q6 -5 14.5 -8.5t16.5 -2.5l322 17q8 0 14.5 -4.5t7.5 -11.5l8 -38q2 -7 -2 -13.5t-10 -10.5l-166 -70q-7 -2 -7 -6t7 -8zM559 448q5 3 5 4.5t-8 1.5
l-73 -4q-7 0 -7.5 -2.5t6.5 -5.5l13 -6q6 -4 16 -4t15 4zM759 217q8 1 11.5 -4t0.5 -12l-72 -225q-2 -7 -9 -12t-14 -5h-357q-8 0 -14.5 4.5t-10.5 11.5l-95 215q-3 7 0 11.5t10 4.5zM685 137q2 7 -1 11.5t-12 4.5l-368 -7q-8 0 -10.5 -5t0.5 -12l42 -92q2 -6 9.5 -10.5
t14.5 -4.5h270q8 0 14.5 4.5t8.5 11.5z" />
    <glyph glyph-name="uni7684" unicode="&#x7684;" horiz-adv-x="1000" 
d="M289 665q13 -10 4 -24l-176 -238q-5 -5 -11.5 -6.5t-12.5 3.5l-40 29q-5 5 -6.5 11.5t3.5 12.5l176 238q4 5 11 6.5t12 -3.5zM929 -23q0 -16 -16 -16l-247 7q-7 0 -12 5t-5 12l2 62q0 7 5 11.5t12 4.5l146 -4q7 0 12 4.5t4 11.5l-13 394q0 7 -5 12t-12 5h-120
q-7 0 -14.5 -4.5t-11.5 -9.5l-42 -68q-4 -6 -10.5 -8t-12.5 2l-47 29q-6 4 -10 2t-3 -10l20 -374q1 -8 -3.5 -12.5t-12.5 -5.5l-403 -12q-16 0 -16 16l25 326q1 8 6 12.5t12 3.5l62 -5q7 0 11.5 -5.5t3.5 -12.5l-4 -52q-1 -8 3.5 -12t12.5 -3l147 19q7 2 12 -2.5t7 -11.5
l6 -49q2 -17 -14 -19l-165 -22q-7 -1 -12 -6.5t-6 -12.5l-4 -49q0 -7 4.5 -12t11.5 -4l200 6q7 0 11.5 5t4.5 12l-15 272q0 7 -5 11t-12 2l-182 -39q-7 -2 -12.5 1.5t-7.5 10.5l-13 61q-2 7 1.5 12.5t10.5 7.5l292 63q7 2 12 -2t5 -12l4 -61q0 -16 9 -2l142 228q4 6 10.5 8
t12.5 -2l52 -33q6 -4 8 -10.5t-2 -12.5l-28 -44q-4 -6 -1.5 -10.5t9.5 -4.5h153q7 0 12 -4.5t5 -12.5zM728 160q-5 -4 -12 -2.5t-11 7.5l-91 142q-9 14 5 23l42 27q5 4 12 2.5t11 -7.5l91 -142q9 -14 -5 -23z" />
    <glyph glyph-name="uni9152" unicode="&#x9152;" horiz-adv-x="1000" 
d="M829 568q10 0 16.5 -7.5t5.5 -18.5l-98 -531q-2 -12 -11 -17.5t-20 -3.5l-226 44q-5 1 -9.5 2t-8.5 1q-3 1 -8 1l-7.5 -0.5t-17.5 -0.5l-36 -1q-11 0 -18.5 7.5t-9.5 18.5l-9 476q0 11 7.5 19t18.5 8l92 1q10 0 18.5 3.5t9.5 9.5q1 5 -5.5 8.5t-18.5 2.5l-101 -7
q-12 -1 -20 6t-9 18l-2 35q-1 11 6 19t18 10l422 30q12 1 20 -6t9 -19l2 -35q1 -11 -5.5 -19t-18.5 -9l-80 -6q-11 -1 -19 -7t-9 -13q-1 -8 6 -14t18 -6zM608 582q-1 -7 -0.5 -11.5t3.5 -4.5q2 0 4 5t2 12q1 7 0.5 11.5t-2.5 3.5q-1 0 -3.5 -4.5t-3.5 -11.5zM464 327
q1 -12 2.5 -12t3.5 12l23 124q2 11 -1.5 18.5t-11.5 7.5t-13 -7.5t-5 -18.5zM709 265q3 11 -3 21t-16 13l-73 21q-10 3 -17 13t-6 20l11 99q1 12 -1 19.5t-6 7.5q-5 0 -8.5 -7.5t-5.5 -19.5l-28 -144q-2 -10 -10.5 -16.5t-20.5 -3.5l-34 5q-11 3 -18.5 -3.5t-7.5 -16.5
l2 -15q0 -12 7.5 -18t18.5 -6l90 11q11 1 19.5 -6t10.5 -17l3 -36q1 -10 -5 -18.5t-18 -9.5l-99 -12q-10 -1 -17.5 -4.5t-7.5 -5.5q0 -4 7.5 -7t17.5 -6l158 -30q10 -2 19 4t12 17zM745 453q1 12 -5.5 19t-16.5 7h-1q-12 0 -20 -7.5t-9 -19.5l-3 -34q-1 -12 4 -21t14 -13
q10 -2 17.5 3.5t10.5 16.5zM285 301q11 -2 16 -11.5t1 -21.5l-67 -213q-3 -10 -13 -14.5t-20 -1.5l-33 11q-11 2 -16 11.5t-2 21.5l68 213q3 10 12.5 14.5t21.5 1.5zM303 676q9 -7 11 -17.5t-5 -18.5l-21 -29q-7 -8 -17.5 -10t-18.5 5l-67 49q-8 6 -10 17t5 19l21 29
q7 9 18 10.5t19 -5.5zM170 487q-7 8 -7 19t8 17l25 25q8 8 19 8t19 -8l31 -33q7 -8 7 -19t-8 -19l-25 -24q-8 -7 -19 -7t-18 8z" />
    <glyph glyph-name="uni9752" unicode="&#x9752;" horiz-adv-x="1000" 
d="M783 433q1 -11 -5.5 -17t-15.5 -6l-370 -15q-11 0 -11 -1.5t10 -2.5l271 -35q9 -1 16 -8t8 -16l27 -303q1 -10 -5 -16.5t-15 -7.5l-44 -5q-9 -1 -16 5t-8 16l-20 232q-2 10 -8.5 16.5t-14.5 7.5l-132 18q-8 1 -15.5 -3t-8.5 -11q-1 -8 5 -14t15 -8l93 -21q8 -2 13 -9.5
t3 -16.5t-9.5 -13.5t-16.5 -2.5l-89 19q-9 3 -16.5 -2.5t-8.5 -14.5l-2 -17q-2 -8 4 -14t14 -5l144 18q9 1 16 -5t8 -15l3 -22q1 -9 -4.5 -16t-14.5 -8l-161 -19q-9 -2 -16 -8.5t-8 -16.5l-10 -64q-1 -8 -8.5 -13.5t-16.5 -4.5l-44 7q-9 1 -14 8t-4 16l6 40q1 9 -4 15t-15 5
l-28 -4q-10 -1 -17.5 4.5t-8.5 15.5l-2 21q-1 10 4.5 16.5t15.5 8.5l46 5q9 2 16.5 8.5t8.5 16.5l27 201q2 9 -3.5 14.5t-14.5 5.5l-90 -3q-10 0 -16.5 6t-6.5 16l-2 44q0 8 6.5 14.5t15.5 8.5l194 6q9 2 15.5 5.5t7.5 9.5q0 6 -6 9.5t-16 2.5l-101 -2q-9 0 -16 5.5t-7 14.5
l-1 22q0 9 6.5 16t15.5 7l107 4q9 1 15.5 5t6.5 11q1 5 -5.5 10t-15.5 6l-133 11q-10 1 -16 7.5t-5 15.5l3 45q1 9 8 15t16 5l130 -11q10 -1 16.5 3.5t6.5 12.5q2 9 8 13.5t15 4.5l44 -3q9 -1 15.5 -6.5t5.5 -13.5q0 -8 6 -14.5t16 -7.5l115 -9q9 -1 14.5 -8t5.5 -16l-4 -44
q-1 -9 -8 -15.5t-15 -5.5l-113 10q-9 2 -15.5 -1t-6.5 -7t6.5 -7t14.5 -2l86 3q8 0 15 -6t7 -15l1 -22q0 -9 -6 -16t-15 -7l-90 -3q-10 0 -16 -4.5t-7 -9.5q0 -6 6 -9.5t15 -3.5l194 8q9 1 16 -5t7 -16z" />
  </font>
</defs>
</svg>
